<?xml version="1.0" encoding="UTF-8" standalone="no"?>
<!DOCTYPE svg PUBLIC "-//W3C//DTD SVG 1.1//EN" "http://www.w3.org/Graphics/SVG/1.1/DTD/svg11.dtd">
<svg width="456" height="456" viewBox="0 0 456 456" version="1.1" xmlns="http://www.w3.org/2000/svg" xmlns:xlink="http://www.w3.org/1999/xlink" xml:space="preserve" xmlns:serif="http://www.serif.com/" style="fill-rule:evenodd;clip-rule:evenodd;stroke-linejoin:round;stroke-miterlimit:2;">
    <ellipse cx="228" cy="228" rx="196.128" ry="213.842" style="fill:rgb(172,127,90);"/>
    <ellipse cx="228" cy="193.032" rx="181.324" ry="178.873" style="fill:rgb(248,224,182);"/>
    <ellipse cx="228" cy="193.032" rx="168.01" ry="165.74"/>
    <ellipse cx="228" cy="193.032" rx="156.227" ry="154.116" style="fill:rgb(223,183,137);"/>
    <path d="M195.272,189.424C195.136,189.477 194.98,189.535 194.805,189.599C193.797,189.965 192.555,190.148 191.078,190.148C189.602,190.148 187.541,188.927 184.896,186.485C182.251,184.043 178.675,181.039 174.168,177.472C169.66,173.905 166.462,169.634 164.572,164.657C162.682,159.681 161.737,155.705 161.737,152.73C161.737,149.755 162.298,147.458 163.42,145.838C164.542,144.219 166.796,142.785 170.181,141.539L185.068,136.675C196.401,133.413 206.28,126.825 214.703,116.911C223.126,106.996 227.338,100.026 227.338,96.001C227.338,94.537 225.874,93.805 222.946,93.805C221.139,93.805 219.168,94.516 217.034,95.939C214.9,97.361 213.285,98.777 212.19,100.187C206.005,108.109 198.623,113.533 190.043,116.458C186.726,117.565 184.363,119.018 182.953,120.818C181.544,122.617 180.204,125.195 178.935,128.55C177.665,131.905 176.536,134.201 175.547,135.438C174.557,136.675 172.685,137.815 169.93,138.86C167.176,139.905 164.933,141.034 163.204,142.246C155.615,146.915 148.813,149.25 142.798,149.25C140.959,149.25 137.938,148.853 133.733,148.058C129.529,147.263 127.427,145.669 127.427,143.276C127.427,140.883 128.79,138.532 131.516,136.225C134.242,133.918 141.041,129.723 151.911,123.642C154.596,121.966 158.417,119.352 163.373,115.798C168.329,112.244 171.652,109.706 173.342,108.185L195.772,89.49C210.692,74.989 219.18,67.142 221.239,65.949C223.298,64.757 225.331,64.161 227.338,64.161C231.403,64.161 234.393,66.024 236.308,69.751C238.222,73.478 239.701,75.789 240.744,76.684C241.788,77.579 244.465,78.851 248.777,80.501C253.089,82.151 255.961,83.645 257.393,84.983C258.826,86.321 261.084,88.051 264.17,90.172C266.148,91.656 267.137,93.813 267.137,96.644C267.137,99.475 264.971,102.121 260.64,104.583C256.308,107.044 252.844,109.932 250.246,113.246C247.648,116.56 245.377,119.23 243.431,121.257C242.542,122.184 241.855,122.859 241.373,123.282C240.799,123.42 240.513,123.568 240.513,123.723C240.513,123.931 240.799,123.784 241.373,123.282C242.148,123.093 243.448,122.92 245.273,122.763C248.447,122.488 251.16,122.351 253.413,122.351C265.044,122.351 274.906,124.598 282.997,129.093C291.089,133.587 295.134,137.928 295.134,142.113C295.134,145.324 293.099,147.822 289.027,149.606C288.355,149.878 287.08,150.789 285.202,152.34C283.323,153.891 281.583,155.606 279.982,157.484C277.449,161.573 274.643,164.704 271.563,166.877C268.484,169.05 266.76,170.413 266.391,170.966C266.022,171.519 265.455,173.436 264.691,176.717C263.926,179.998 261.814,181.639 258.354,181.639L250.12,181.639C240.378,181.639 233.094,182.47 228.266,184.133C223.438,185.795 221.025,187.251 221.025,188.501C221.025,189.158 221.587,190.012 222.712,191.063C223.837,192.114 225.678,194 228.234,196.722C229.766,198.378 231.481,199.205 233.376,199.205C239.529,199.205 244.111,198.152 247.122,196.045C256.737,188.648 264.728,183.117 271.094,179.451C277.46,175.786 281.539,173.953 283.332,173.953C286.151,173.953 289.28,175.78 292.72,179.434C296.159,183.088 297.879,185.935 297.879,187.975C297.879,190.015 296.571,191.945 293.955,193.765C291.339,195.585 287.838,197.288 283.452,198.875C279.066,200.462 272.829,203.367 264.742,207.59C256.655,211.813 252.379,214.11 251.914,214.482C251.45,214.854 251.217,215.157 251.217,215.391C251.217,215.626 251.264,215.835 251.357,216.019C251.45,216.204 252.945,217.276 255.843,219.236C258.741,221.196 264.54,224.285 273.24,228.502C281.941,232.719 288.41,235.685 292.649,237.399C296.888,239.113 304.47,241.144 315.397,243.491C326.323,245.838 333.639,247.5 337.344,248.475C341.05,249.45 344.777,251.062 348.525,253.31C352.273,255.559 354.148,257.836 354.148,260.14C354.148,263.645 349.631,266.352 340.597,268.259C331.564,270.166 323.354,271.119 315.967,271.119C308.58,271.119 301.839,270.979 295.743,270.697C289.648,270.415 285.858,270.028 284.376,269.535C282.893,269.041 281.63,268.098 280.585,266.704C279.54,265.31 278.5,263.268 277.465,260.578C273.679,250.427 267.552,243.105 259.083,238.611C250.614,234.116 245.814,231.869 244.681,231.869C243.549,231.869 243.075,232.513 243.258,233.801C243.441,235.089 243.532,236.825 243.532,239.009C243.532,241.194 243.247,244.654 242.679,249.39C242.11,254.127 241.55,262.569 240.999,274.718C240.449,286.866 239.423,294.629 237.922,298.006C236.421,301.382 235.402,304.013 234.864,305.897C234.327,307.781 232.286,308.723 228.742,308.723C225.198,308.723 219.862,308.01 212.734,306.585C205.607,305.16 200.639,303.464 197.831,301.499C195.023,299.533 192.203,297.91 189.371,296.631C186.539,295.352 184.382,294.173 182.9,293.095C181.417,292.017 180.676,290.372 180.676,288.161C180.676,285.949 182.266,285.072 185.445,285.53C188.624,285.987 192.017,286.216 195.622,286.216C199.228,286.216 203.788,285.77 209.303,284.878C214.819,283.986 218.151,280.87 219.301,275.532C220.45,270.194 221.025,265.208 221.025,260.573C221.025,255.939 220.877,252.29 220.581,249.628C220.374,247.767 220.225,246.553 220.134,245.987C220.345,245.781 220.553,245.575 220.759,245.37C220.61,245.518 220.44,245.593 220.248,245.593C220.057,245.593 219.99,245.6 220.049,245.614C220.067,245.618 220.095,245.743 220.134,245.987C216.527,249.509 212.175,253.055 207.078,256.623C201.391,260.892 197.687,265.274 195.965,269.768C194.244,274.263 189.011,277.579 180.266,279.716C171.522,281.853 163.058,282.922 154.875,282.922C151.412,282.922 147.939,282.399 144.455,281.354C140.971,280.309 139.229,278.867 139.229,277.027C139.229,275.187 141.099,273.442 144.839,271.793C148.579,270.143 152.133,268.908 155.501,268.089C158.869,267.27 162.72,265.82 167.055,263.738C171.389,261.657 175.539,258.994 179.505,255.748C183.471,252.503 187.286,249.781 190.952,247.583C198.483,242.742 203.96,238.14 207.382,233.777C210.804,229.414 212.516,226.399 212.516,224.732C212.516,224.366 212.699,224.183 213.065,224.183C212.739,224.183 212.373,224.222 211.967,224.299C199.664,236.53 188.283,245.379 177.824,250.844C167.365,256.309 158.434,259.042 151.032,259.042C145.908,259.042 143.347,257.917 143.347,255.667C143.347,253.417 144.713,251.398 147.447,249.611C150.18,247.824 155.97,244.563 164.816,239.829C172.027,236.335 179.584,230.812 187.487,223.261C193.916,217.117 197.73,212.845 198.929,210.443C199.203,210.356 199.341,209.904 199.341,209.087C199.341,209.441 199.203,209.893 198.929,210.443C198.896,210.454 198.861,210.459 198.824,210.459C198.479,210.459 196.842,211.152 193.911,212.537C190.98,213.922 188.159,216.106 185.447,219.088C182.735,222.07 180.193,224.284 177.822,225.729C175.45,227.175 171.569,228.559 166.178,229.883C160.787,231.207 155.771,231.869 151.131,231.869C146.49,231.869 144.17,230.638 144.17,228.178C144.17,225.718 146.738,222.977 151.873,219.957C157.008,216.936 160.768,215.028 163.154,214.233C165.54,213.438 167.693,212.168 169.613,210.423C171.533,208.677 175.244,206.108 180.745,202.716C186.246,199.323 190.08,196.463 192.247,194.136C193.844,192.421 194.853,190.85 195.272,189.424C195.921,189.175 196.133,189.05 195.907,189.05C195.634,189.05 195.498,188.684 195.498,187.952C195.498,188.424 195.423,188.915 195.272,189.424ZM207.85,154.465C207.85,150.622 207.209,148.701 205.928,148.701C204.358,148.701 201.541,149.756 197.477,151.866C193.413,153.976 191.381,156.489 191.381,159.406C191.381,161.336 191.86,163.328 192.82,165.382C193.779,167.436 195.221,168.464 197.145,168.464C201.053,168.464 203.815,166.735 205.429,163.278C207.043,159.822 207.85,156.884 207.85,154.465ZM231.729,159.955C232.813,159.955 235.566,159.136 239.989,157.497C244.413,155.859 247.252,153.547 248.509,150.562C249.766,147.577 250.394,145.219 250.394,143.486C250.394,141.839 247.914,141.016 242.955,141.016C237.996,141.016 234.611,142.64 232.799,145.888C230.988,149.136 230.082,152.292 230.082,155.357C230.082,158.422 230.631,159.955 231.729,159.955Z"/>
</svg>