<?xml version="1.0" encoding="UTF-8" standalone="no"?>
<!DOCTYPE svg PUBLIC "-//W3C//DTD SVG 1.1//EN" "http://www.w3.org/Graphics/SVG/1.1/DTD/svg11.dtd">
<svg width="456" height="456" viewBox="0 0 456 456" version="1.1" xmlns="http://www.w3.org/2000/svg" xmlns:xlink="http://www.w3.org/1999/xlink" xml:space="preserve" xmlns:serif="http://www.serif.com/" style="fill-rule:evenodd;clip-rule:evenodd;stroke-linejoin:round;stroke-miterlimit:2;">
    <g transform="matrix(0.657895,0,0,0.657895,78,78)">
        <ellipse cx="228" cy="458.135" rx="196.128" ry="213.842" style="fill:rgb(172,127,90);"/>
        <ellipse cx="228" cy="423.166" rx="181.324" ry="178.873" style="fill:rgb(248,224,182);"/>
        <ellipse cx="228" cy="423.166" rx="168.01" ry="165.74"/>
        <ellipse cx="228" cy="423.166" rx="156.227" ry="154.116" style="fill:rgb(223,183,137);"/>
        <path d="M195.272,419.558C195.136,419.612 194.98,419.67 194.805,419.733C193.797,420.099 192.555,420.282 191.078,420.282C189.602,420.282 187.541,419.061 184.896,416.62C182.251,414.178 178.675,411.174 174.168,407.607C169.66,404.04 166.462,399.768 164.572,394.792C162.682,389.816 161.737,385.84 161.737,382.865C161.737,379.89 162.298,377.593 163.42,375.973C164.542,374.353 166.796,372.92 170.181,371.673L185.068,366.81C196.401,363.548 206.28,356.959 214.703,347.045C223.126,337.131 227.338,330.161 227.338,326.135C227.338,324.671 225.874,323.939 222.946,323.939C221.139,323.939 219.168,324.651 217.034,326.073C214.9,327.496 213.285,328.912 212.19,330.321C206.005,338.244 198.623,343.668 190.043,346.593C186.726,347.699 184.363,349.152 182.953,350.952C181.544,352.752 180.204,355.33 178.935,358.685C177.665,362.04 176.536,364.336 175.547,365.573C174.557,366.809 172.685,367.95 169.93,368.995C167.176,370.04 164.933,371.169 163.204,372.381C155.615,377.05 148.813,379.385 142.798,379.385C140.959,379.385 137.938,378.987 133.733,378.192C129.529,377.397 127.427,375.803 127.427,373.41C127.427,371.017 128.79,368.667 131.516,366.36C134.242,364.052 141.041,359.858 151.911,353.776C154.596,352.101 158.417,349.486 163.373,345.932C168.329,342.378 171.652,339.841 173.342,338.32L195.772,319.625C210.692,305.123 219.18,297.276 221.239,296.084C223.298,294.892 225.331,294.296 227.338,294.296C231.403,294.296 234.393,296.159 236.308,299.886C238.222,303.613 239.701,305.924 240.744,306.819C241.788,307.714 244.465,308.986 248.777,310.636C253.089,312.285 255.961,313.779 257.393,315.118C258.826,316.456 261.084,318.185 264.17,320.307C266.148,321.791 267.137,323.948 267.137,326.779C267.137,329.609 264.971,332.255 260.64,334.717C256.308,337.179 252.844,340.067 250.246,343.38C247.648,346.694 245.377,349.365 243.431,351.392C242.542,352.319 241.855,352.994 241.373,353.416C240.799,353.555 240.513,353.702 240.513,353.858C240.513,354.066 240.799,353.919 241.373,353.416C242.148,353.228 243.448,353.055 245.273,352.897C248.447,352.623 251.16,352.485 253.413,352.485C265.044,352.485 274.906,354.733 282.997,359.227C291.089,363.722 295.134,368.062 295.134,372.248C295.134,375.459 293.099,377.956 289.027,379.741C288.355,380.012 287.08,380.923 285.202,382.475C283.323,384.026 281.583,385.74 279.982,387.619C277.449,391.708 274.643,394.838 271.563,397.011C268.484,399.184 266.76,400.547 266.391,401.101C266.022,401.654 265.455,403.571 264.691,406.852C263.926,410.133 261.814,411.773 258.354,411.773L250.12,411.773C240.378,411.773 233.094,412.605 228.266,414.267C223.438,415.93 221.025,417.386 221.025,418.635C221.025,419.293 221.587,420.147 222.712,421.198C223.837,422.249 225.678,424.135 228.234,426.857C229.766,428.512 231.481,429.34 233.376,429.34C239.529,429.34 244.111,428.286 247.122,426.179C256.737,418.782 264.728,413.251 271.094,409.586C277.46,405.921 281.539,404.088 283.332,404.088C286.151,404.088 289.28,405.915 292.72,409.569C296.159,413.223 297.879,416.07 297.879,418.11C297.879,420.15 296.571,422.08 293.955,423.9C291.339,425.72 287.838,427.423 283.452,429.01C279.066,430.597 272.829,433.502 264.742,437.725C256.655,441.948 252.379,444.245 251.914,444.617C251.45,444.988 251.217,445.291 251.217,445.526C251.217,445.76 251.264,445.97 251.357,446.154C251.45,446.339 252.945,447.411 255.843,449.371C258.741,451.331 264.54,454.419 273.24,458.637C281.941,462.854 288.41,465.819 292.649,467.534C296.888,469.248 304.47,471.278 315.397,473.626C326.323,475.973 333.639,477.634 337.344,478.609C341.05,479.584 344.777,481.196 348.525,483.445C352.273,485.694 354.148,487.97 354.148,490.275C354.148,493.78 349.631,496.486 340.597,498.393C331.564,500.3 323.354,501.254 315.967,501.254C308.58,501.254 301.839,501.113 295.743,500.831C289.648,500.55 285.858,500.162 284.376,499.669C282.893,499.176 281.63,498.232 280.585,496.839C279.54,495.445 278.5,493.403 277.465,490.712C273.679,480.562 267.552,473.24 259.083,468.745C250.614,464.251 245.814,462.003 244.681,462.003C243.549,462.003 243.075,462.647 243.258,463.935C243.441,465.223 243.532,466.96 243.532,469.144C243.532,471.328 243.247,474.789 242.679,479.525C242.11,484.261 241.55,492.704 240.999,504.852C240.449,517.001 239.423,524.763 237.922,528.14C236.421,531.517 235.402,534.147 234.864,536.031C234.327,537.916 232.286,538.858 228.742,538.858C225.198,538.858 219.862,538.145 212.734,536.72C205.607,535.294 200.639,533.599 197.831,531.633C195.023,529.668 192.203,528.045 189.371,526.766C186.539,525.486 184.382,524.307 182.9,523.23C181.417,522.152 180.676,520.507 180.676,518.295C180.676,516.084 182.266,515.207 185.445,515.664C188.624,516.122 192.017,516.35 195.622,516.35C199.228,516.35 203.788,515.904 209.303,515.012C214.819,514.12 218.151,511.005 219.301,505.667C220.45,500.329 221.025,495.343 221.025,490.708C221.025,486.073 220.877,482.425 220.581,479.763C220.374,477.902 220.225,476.688 220.134,476.121C220.345,475.916 220.553,475.71 220.759,475.504C220.61,475.653 220.44,475.727 220.248,475.727C220.057,475.727 219.99,475.734 220.049,475.749C220.067,475.753 220.095,475.877 220.134,476.121C216.527,479.644 212.175,483.189 207.078,486.758C201.391,491.027 197.687,495.408 195.965,499.903C194.244,504.398 189.011,507.713 180.266,509.851C171.522,511.988 163.058,513.057 154.875,513.057C151.412,513.057 147.939,512.534 144.455,511.489C140.971,510.444 139.229,509.002 139.229,507.162C139.229,505.322 141.099,503.577 144.839,501.927C148.579,500.277 152.133,499.043 155.501,498.224C158.869,497.405 162.72,495.954 167.055,493.873C171.389,491.791 175.539,489.128 179.505,485.883C183.471,482.638 187.286,479.916 190.952,477.717C198.483,472.877 203.96,468.275 207.382,463.912C210.804,459.549 212.516,456.534 212.516,454.867C212.516,454.501 212.699,454.318 213.065,454.318C212.739,454.318 212.373,454.356 211.967,454.434C199.664,466.665 188.283,475.514 177.824,480.979C167.365,486.444 158.434,489.177 151.032,489.177C145.908,489.177 143.347,488.052 143.347,485.802C143.347,483.551 144.713,481.533 147.447,479.746C150.18,477.959 155.97,474.698 164.816,469.963C172.027,466.469 179.584,460.947 187.487,453.396C193.916,447.252 197.73,442.979 198.929,440.578C199.203,440.49 199.341,440.038 199.341,439.221C199.341,439.575 199.203,440.027 198.929,440.578C198.896,440.588 198.861,440.594 198.824,440.594C198.479,440.594 196.842,441.286 193.911,442.672C190.98,444.057 188.159,446.241 185.447,449.223C182.735,452.205 180.193,454.419 177.822,455.864C175.45,457.309 171.569,458.694 166.178,460.017C160.787,461.341 155.771,462.003 151.131,462.003C146.49,462.003 144.17,460.773 144.17,458.313C144.17,455.852 146.738,453.112 151.873,450.091C157.008,447.07 160.768,445.163 163.154,444.368C165.54,443.573 167.693,442.303 169.613,440.557C171.533,438.812 175.244,436.243 180.745,432.85C186.246,429.458 190.08,426.598 192.247,424.271C193.844,422.556 194.853,420.985 195.272,419.558C195.921,419.309 196.133,419.184 195.907,419.184C195.634,419.184 195.498,418.818 195.498,418.086C195.498,418.559 195.423,419.05 195.272,419.558ZM207.85,384.6C207.85,380.757 207.209,378.836 205.928,378.836C204.358,378.836 201.541,379.891 197.477,382.001C193.413,384.111 191.381,386.624 191.381,389.54C191.381,391.47 191.86,393.462 192.82,395.517C193.779,397.571 195.221,398.598 197.145,398.598C201.053,398.598 203.815,396.87 205.429,393.413C207.043,389.956 207.85,387.019 207.85,384.6ZM231.729,390.089C232.813,390.089 235.566,389.27 239.989,387.632C244.413,385.994 247.252,383.682 248.509,380.697C249.766,377.712 250.394,375.353 250.394,373.62C250.394,371.974 247.914,371.15 242.955,371.15C237.996,371.15 234.611,372.774 232.799,376.022C230.988,379.27 230.082,382.427 230.082,385.492C230.082,388.557 230.631,390.089 231.729,390.089Z"/>
        <path d="M72.237,226.541L72.237,188.662C70.963,186.635 69.573,184.549 68.067,182.406C72.411,179.626 76.755,176.412 81.099,172.763L70.065,172.763L70.065,164.596L76.668,164.596C75.22,162.163 73.482,159.412 71.455,156.343L76.233,153.649C75.017,153.707 73.801,153.765 72.584,153.823C72.237,151.101 71.744,148.176 71.107,145.048C84.719,144.585 97.606,143.803 109.769,142.702L111.072,151.39C106.149,151.796 101.197,152.143 96.216,152.433L96.216,164.596L103.34,164.596L98.909,161.382C100.936,158.601 103.021,155.59 105.164,152.346L111.767,156.429C109.624,159.441 107.626,162.163 105.772,164.596L112.201,164.596L111.68,163.032L118.544,160.252C120.05,164.191 121.469,168.042 122.801,171.807L122.801,155.474L113.244,155.474L113.244,145.048L131.576,145.048L131.576,162.598L138.005,160.165C139.626,164.451 141.19,168.795 142.696,173.197L142.696,155.387L133.487,155.387L133.487,144.961L151.992,144.961L151.992,216.898C151.992,222.69 149.589,225.701 144.781,225.933C141.885,226.107 139.076,226.194 136.354,226.194C135.833,222.834 135.051,219.243 134.008,215.421C135.804,215.536 137.773,215.594 139.916,215.594C141.769,215.594 142.696,214.523 142.696,212.38L142.696,192.571C140.553,197.089 138.207,201.578 135.659,206.038L131.576,203.431L131.576,217.332C131.576,222.834 129.23,225.73 124.538,226.02C121.816,226.194 119.065,226.281 116.285,226.281C115.763,222.921 114.982,219.301 113.939,215.421C115.677,215.536 117.588,215.594 119.673,215.594C121.758,215.652 122.801,214.552 122.801,212.293L122.801,193.614C120.658,198.074 118.573,202.215 116.545,206.038L111.246,202.649L111.246,226.541L102.384,226.541L102.384,223.153L81.099,223.153L81.099,226.541L72.237,226.541ZM95.694,215.16L102.384,215.16L102.384,208.818L95.694,208.818L95.694,215.16ZM81.099,215.16L87.788,215.16L87.788,208.818L81.099,208.818L81.099,215.16ZM102.384,195.873L95.694,195.873L95.694,202.215L102.384,202.215L102.384,195.873ZM81.099,202.215L87.788,202.215L87.788,195.873L81.099,195.873L81.099,202.215ZM96.216,186.75L87.441,186.75L87.441,176.672C83.792,180.669 79.853,184.405 75.625,187.88L111.246,187.88L111.246,197.871C113.505,193.701 115.937,188.98 118.544,183.71L122.801,185.882L122.801,178.323L117.501,180.669C115.937,175.514 114.258,170.359 112.462,165.204L112.462,172.763L96.216,172.763L96.216,177.976L99.691,173.458C104.73,175.775 109.479,178.149 113.939,180.582L109.248,187.445C105.135,184.955 100.791,182.522 96.216,180.148L96.216,186.75ZM137.57,183.623L142.696,186.142L142.696,178.062L136.615,180.495C135.109,174.993 133.429,169.635 131.576,164.422L131.576,195.699C133.545,191.992 135.543,187.967 137.57,183.623ZM78.492,153.562C80.461,156.111 82.373,158.804 84.226,161.642L79.535,164.596L87.441,164.596L87.441,153.041C84.487,153.215 81.504,153.389 78.492,153.562Z" style="fill:rgb(253,233,194);"/>
        <path d="M187.7,226.541L187.7,188.662C186.426,186.635 185.035,184.549 183.53,182.406C187.874,179.626 192.217,176.412 196.561,172.763L185.528,172.763L185.528,164.596L192.131,164.596C190.683,162.163 188.945,159.412 186.918,156.343L191.696,153.649C190.48,153.707 189.264,153.765 188.047,153.823C187.7,151.101 187.207,148.176 186.57,145.048C200.181,144.585 213.069,143.803 225.232,142.702L226.535,151.39C221.612,151.796 216.66,152.143 211.679,152.433L211.679,164.596L218.803,164.596L214.372,161.382C216.399,158.601 218.484,155.59 220.627,152.346L227.23,156.429C225.087,159.441 223.089,162.163 221.235,164.596L227.664,164.596L227.143,163.032L234.007,160.252C235.512,164.191 236.932,168.042 238.264,171.807L238.264,155.474L228.707,155.474L228.707,145.048L247.038,145.048L247.038,162.598L253.468,160.165C255.089,164.451 256.653,168.795 258.159,173.197L258.159,155.387L248.95,155.387L248.95,144.961L267.455,144.961L267.455,216.898C267.455,222.69 265.052,225.701 260.244,225.933C257.348,226.107 254.539,226.194 251.817,226.194C251.296,222.834 250.514,219.243 249.471,215.421C251.267,215.536 253.236,215.594 255.379,215.594C257.232,215.594 258.159,214.523 258.159,212.38L258.159,192.571C256.016,197.089 253.67,201.578 251.122,206.038L247.038,203.431L247.038,217.332C247.038,222.834 244.693,225.73 240.001,226.02C237.279,226.194 234.528,226.281 231.748,226.281C231.226,222.921 230.445,219.301 229.402,215.421C231.14,215.536 233.051,215.594 235.136,215.594C237.221,215.652 238.264,214.552 238.264,212.293L238.264,193.614C236.121,198.074 234.036,202.215 232.008,206.038L226.709,202.649L226.709,226.541L217.847,226.541L217.847,223.153L196.561,223.153L196.561,226.541L187.7,226.541ZM211.157,215.16L217.847,215.16L217.847,208.818L211.157,208.818L211.157,215.16ZM196.561,215.16L203.251,215.16L203.251,208.818L196.561,208.818L196.561,215.16ZM217.847,195.873L211.157,195.873L211.157,202.215L217.847,202.215L217.847,195.873ZM196.561,202.215L203.251,202.215L203.251,195.873L196.561,195.873L196.561,202.215ZM211.679,186.75L202.904,186.75L202.904,176.672C199.255,180.669 195.316,184.405 191.088,187.88L226.709,187.88L226.709,197.871C228.968,193.701 231.4,188.98 234.007,183.71L238.264,185.882L238.264,178.323L232.964,180.669C231.4,175.514 229.721,170.359 227.925,165.204L227.925,172.763L211.679,172.763L211.679,177.976L215.154,173.458C220.193,175.775 224.942,178.149 229.402,180.582L224.71,187.445C220.598,184.955 216.254,182.522 211.679,180.148L211.679,186.75ZM253.033,183.623L258.159,186.142L258.159,178.062L252.078,180.495C250.572,174.993 248.892,169.635 247.038,164.422L247.038,195.699C249.008,191.992 251.006,187.967 253.033,183.623ZM193.955,153.562C195.924,156.111 197.836,158.804 199.689,161.642L194.998,164.596L202.904,164.596L202.904,153.041C199.95,153.215 196.967,153.389 193.955,153.562Z" style="fill:rgb(253,233,194);"/>
        <path d="M326.794,198.392L334.961,198.392L334.961,160.773L329.053,160.773L329.053,150.522L334.961,150.522L334.961,141.312L346.081,141.312L346.081,150.522L366.759,150.522L366.759,141.139L377.879,141.139L377.879,150.522L384.134,150.522L384.134,160.773L377.879,160.773L377.879,198.392L386.22,198.392L386.22,208.644L372.232,208.644L387.001,217.853L380.486,227.584C373.361,222.603 366.903,218.201 361.111,214.378L365.933,208.644L346.385,208.644L351.207,214.465C344.894,219.099 338.175,223.587 331.051,227.931C328.445,224.224 325.925,220.952 323.493,218.114C329.4,214.986 334.628,211.83 339.174,208.644L326.794,208.644L326.794,198.392ZM302.033,156.343L310.113,156.343L310.113,141.312L320.365,141.312L320.365,156.343L328.271,156.343L328.271,167.724L320.365,167.724L320.365,174.674L323.666,172.068L331.833,185.882L324.014,191.529C322.797,188.864 321.581,186.33 320.365,183.927L320.365,226.628L310.113,226.628L310.113,194.092C308.115,199.391 305.914,204.126 303.51,208.296C302.584,202.678 301.599,197.35 300.556,192.311C304.495,185.534 307.68,177.7 310.113,168.81L310.113,167.724L302.033,167.724L302.033,156.343ZM346.081,198.392L366.759,198.392L366.759,192.05L346.081,192.05L346.081,198.392ZM346.081,182.667L366.759,182.667L366.759,176.412L346.081,176.412L346.081,182.667ZM346.081,167.029L366.759,167.029L366.759,160.773L346.081,160.773L346.081,167.029Z" style="fill:rgb(253,233,194);"/>
        <path d="M119.375,69.207L140.154,69.207L140.154,57.441L144.796,57.441L144.796,69.207L165.791,69.207L165.791,93.818L161.365,93.818L161.365,90.903L144.796,90.903L144.796,110.981L140.154,110.981L140.154,90.903L123.801,90.903L123.801,93.818L119.375,93.818L119.375,69.207ZM161.365,73.201L144.796,73.201L144.796,86.909L161.365,86.909L161.365,73.201ZM123.801,86.909L140.154,86.909L140.154,73.201L123.801,73.201L123.801,86.909Z" style="fill:rgb(225,186,140);"/>
        <path d="M174.156,60.355L221.381,60.355L221.381,110.711L217.225,110.711L217.225,108.012L178.312,108.012L178.312,110.765L174.156,110.765L174.156,60.355ZM217.225,64.187L178.312,64.187L178.312,104.18L217.225,104.18L217.225,64.187ZM180.795,94.789L195.691,94.789L195.691,84.103L182.684,84.103L182.684,80.433L195.691,80.433L195.691,73.201L181.658,73.201L181.658,69.531L213.825,69.531L213.825,73.201L199.685,73.201L199.685,80.433L212.746,80.433L212.746,84.103L199.685,84.103L199.685,94.789L214.689,94.789L214.689,98.459L180.795,98.459L180.795,94.789ZM202.491,87.557L205.514,85.29C207.493,87.341 209.184,89.266 210.587,91.065L207.403,93.494C205.676,91.155 204.038,89.176 202.491,87.557Z" style="fill:rgb(225,186,140);"/>
        <path d="M272.978,84.427L275.137,88.043C271.953,89.158 268.633,90.31 265.179,91.497C268.058,97.956 272.978,102.309 279.94,104.558C278.753,106.033 277.782,107.239 277.026,108.174C270.333,105.332 265.242,100.16 261.752,92.657C260.763,92.981 259.773,93.314 258.784,93.656C259.431,95.725 259.755,98.082 259.755,100.726C259.755,107.167 256.679,110.387 250.526,110.387C248.295,110.387 245.92,110.351 243.402,110.279C243.258,109.38 242.952,107.994 242.484,106.123C245.111,106.411 247.539,106.555 249.77,106.555C253.836,106.555 255.869,104.522 255.869,100.456C255.869,98.873 255.734,97.452 255.464,96.193C250.103,101.428 241.045,105.889 228.29,109.578C227.642,108.498 226.922,107.239 226.131,105.8C238.526,102.651 247.881,98.288 254.196,92.711C253.746,91.866 253.18,91.011 252.496,90.148C247.513,94.573 239.696,98.369 229.045,101.536C228.47,100.492 227.732,99.269 226.832,97.866C237.195,95.149 245.012,91.749 250.283,87.665C249.653,87.017 248.961,86.37 248.205,85.722C243.815,88.745 237.177,91.353 228.29,93.548C227.822,92.541 227.12,91.263 226.185,89.716C236.277,87.827 243.231,85.308 247.045,82.16L235.576,82.16L235.576,83.833L231.852,83.833L231.852,73.417C230.61,74.262 229.315,75.108 227.966,75.953C227.498,74.766 226.886,73.579 226.131,72.391C233.651,68.145 239.552,63.126 243.833,57.333L248.691,57.927C247.737,59.312 246.622,60.697 245.345,62.083L267.581,62.083L267.581,65.267L262.319,70.016L275.677,70.016L275.677,83.401L271.953,83.401L271.953,82.16L252.199,82.16C251.803,82.646 251.353,83.122 250.85,83.59C253.782,85.821 255.968,88.16 257.407,90.607C263.218,88.736 268.408,86.676 272.978,84.427ZM271.953,73.525L256.247,73.525C255.779,75.45 255.185,77.159 254.466,78.652L271.953,78.652L271.953,73.525ZM235.576,78.652L250.04,78.652C250.922,77.195 251.605,75.486 252.091,73.525L235.576,73.525L235.576,78.652ZM261.968,65.429L242.025,65.429C240.388,66.94 238.562,68.469 236.547,70.016L257.191,70.016L261.968,65.429Z" style="fill:rgb(225,186,140);"/>
        <path d="M310.218,99.161L313.133,102.345C309.031,105.152 304.426,108.084 299.316,111.143C298.597,110.099 297.769,108.966 296.834,107.743C301.403,105.26 305.865,102.399 310.218,99.161ZM320.203,102.723L322.686,99.485C327.435,102.183 331.771,104.738 335.693,107.149L333.102,110.927C329.001,108.012 324.701,105.278 320.203,102.723ZM281.344,91.605C284.726,85.92 287.245,79.569 288.9,72.553L282.045,72.553L282.045,68.991L289.331,68.991L289.331,57.819L293.056,57.819L293.056,68.991L298.938,68.991L298.938,72.553L293.056,72.553L293.056,81.242L295.052,79.461C297.031,81.44 298.974,83.527 300.881,85.722L298.021,88.367C296.456,86.28 294.801,84.265 293.056,82.322L293.056,110.711L289.331,110.711L289.331,80.919C287.622,87.215 285.517,92.361 283.017,96.355C282.549,94.807 281.991,93.224 281.344,91.605ZM297.967,94.034L304.444,94.034L304.444,68.667L299.424,68.667L299.424,64.889L304.444,64.889L304.444,57.927L308.545,57.927L308.545,64.889L324.791,64.889L324.791,57.819L328.893,57.819L328.893,64.889L333.966,64.889L333.966,68.667L328.893,68.667L328.893,94.034L335.261,94.034L335.261,97.812L297.967,97.812L297.967,94.034ZM308.545,94.034L324.791,94.034L324.791,87.989L308.545,87.989L308.545,94.034ZM308.545,84.319L324.791,84.319L324.791,78.328L308.545,78.328L308.545,84.319ZM308.545,74.658L324.791,74.658L324.791,68.667L308.545,68.667L308.545,74.658Z" style="fill:rgb(225,186,140);"/>
    </g>
</svg>